<svg id="Layer_1" data-name="Layer 1" xmlns="http://www.w3.org/2000/svg" width="150" height="42.18" viewBox="0 0 150 42.18"><defs><style>.cls-1{fill:#231f20;}.cls-2{fill:#4ec0b0;}.cls-3{fill:#939598;}</style></defs><title>Contrast-Logo-4C</title><path class="cls-1" d="M361.23,382.5a.56.56,0,0,1,.19-.43.64.64,0,0,1,.45-.16h14.5a.69.69,0,0,1,.44.15.62.62,0,0,1,.21.44v3.35a.75.75,0,0,1-.17.46.55.55,0,0,1-.48.22h-4.65V401.3a.65.65,0,0,1-.17.43.6.6,0,0,1-.46.2h-3.95a.63.63,0,0,1-.43-.18.56.56,0,0,1-.2-.45V386.53h-4.64a.6.6,0,0,1-.45-.17.69.69,0,0,1-.19-.51Zm-13.85,12.72a.46.46,0,0,0-.26-.08.83.83,0,0,0-.46.2l-2.33,2.22a.75.75,0,0,0-.31.52,1,1,0,0,0,.31.54l0,0s0,0,0,0l0,0,0,0,0,0,.58.6a6.66,6.66,0,0,0,.91.77,11.59,11.59,0,0,0,2.8,1.49,8.65,8.65,0,0,0,3,.56,9.93,9.93,0,0,0,3.08-.47,7.82,7.82,0,0,0,2.48-1.31,6.17,6.17,0,0,0,1.67-2.06,5.94,5.94,0,0,0,.6-2.69,5.23,5.23,0,0,0-.49-2.38,5.1,5.1,0,0,0-1.37-1.7,8.51,8.51,0,0,0-2.08-1.22c-.8-.35-1.68-.68-2.63-1l-1.31-.46a5.07,5.07,0,0,1-.93-.44,2.06,2.06,0,0,1-.57-.51,1.22,1.22,0,0,1-.19-.66,1.12,1.12,0,0,1,.18-.64,1.28,1.28,0,0,1,.47-.42,2.34,2.34,0,0,1,.69-.24,4.43,4.43,0,0,1,.83-.07,2.74,2.74,0,0,1,.85.13,4.31,4.31,0,0,1,.8.32,5.64,5.64,0,0,1,.71.44c.22.16.42.32.6.47l.12.11a3.31,3.31,0,0,0,.34.27.59.59,0,0,0,.34.1.64.64,0,0,0,.46-.22l2.07-2.2a2.82,2.82,0,0,0,.26-.34.62.62,0,0,0,.09-.32.7.7,0,0,0-.19-.42,3.25,3.25,0,0,0-.49-.51c-.21-.18-.45-.37-.72-.56a9.28,9.28,0,0,0-.87-.56,8.63,8.63,0,0,0-2.22-.88,9.51,9.51,0,0,0-2.35-.28,10,10,0,0,0-3,.4,6.93,6.93,0,0,0-2.26,1.12,5.14,5.14,0,0,0-1.44,1.75,5,5,0,0,0-.51,2.28,5.49,5.49,0,0,0,.41,2.15,5.39,5.39,0,0,0,1.21,1.76,8.68,8.68,0,0,0,2,1.46,20.68,20.68,0,0,0,2.83,1.22l.87.3a6.31,6.31,0,0,1,.95.44,3.17,3.17,0,0,1,.78.58,1.06,1.06,0,0,1,.32.75,2.08,2.08,0,0,1-.12.71,1.46,1.46,0,0,1-.38.6,2.08,2.08,0,0,1-.74.41,3.77,3.77,0,0,1-1.15.15,4,4,0,0,1-1.42-.25,6.64,6.64,0,0,1-1.36-.72,6.9,6.9,0,0,1-.81-.63l-.59-.5a2.19,2.19,0,0,0-.32-.24m-13.31-7c-.17.45-1.9,5.7-2.08,6.16h4.14Zm9.73,13.55a.65.65,0,0,1-.51.17h-3.87a1,1,0,0,1-.48-.11.77.77,0,0,1-.26-.39c-.18-.46-.87-2.28-1-2.74h-7.15c-.18.46-.87,2.28-1,2.74a.68.68,0,0,1-.69.5h-4a.7.7,0,0,1-.42-.13.33.33,0,0,1-.06-.41l7.32-18.95a.38.38,0,0,1,.09-.18.74.74,0,0,1,.18-.17.76.76,0,0,1,.23-.13.64.64,0,0,1,.23,0h3.45a.6.6,0,0,1,.39.14,1.75,1.75,0,0,1,.24.25l.34.77,7.07,18.25a.38.38,0,0,1,0,.44m-26.3-13.24a2.72,2.72,0,0,1-.13.84,2.5,2.5,0,0,1-.39.74,2.23,2.23,0,0,1-1.49.83l-.41,0h-2.92V386H314c.26,0,.5,0,.72,0l.7,0a2.34,2.34,0,0,1,.84.3,2.36,2.36,0,0,1,.65.57,2.6,2.6,0,0,1,.56,1.55m5.92,13a.92.92,0,0,0-.15-.45c-.1-.17-.18-.32-.24-.44l-3.46-6.53a7.19,7.19,0,0,0,1.34-1,6.69,6.69,0,0,0,1.06-1.31,7,7,0,0,0,.69-1.55,5.92,5.92,0,0,0,.25-1.75,6.24,6.24,0,0,0-.52-2.54,6.68,6.68,0,0,0-1.42-2.08,6.89,6.89,0,0,0-2.12-1.41,6.49,6.49,0,0,0-2.6-.52h-8.71a.54.54,0,0,0-.44.17.64.64,0,0,0-.15.45v18.82a.55.55,0,0,0,.16.44.65.65,0,0,0,.43.14h4c.42,0,.62-.19.62-.58v-6.08h2.19l3.27,6.16a.67.67,0,0,0,.24.37.74.74,0,0,0,.41.13h4.63a.61.61,0,0,0,.38-.11.42.42,0,0,0,.14-.33m-35-19a.55.55,0,0,1,.18-.43.68.68,0,0,1,.46-.16h14.5a.66.66,0,0,1,.43.15.59.59,0,0,1,.22.44v3.35a.75.75,0,0,1-.17.46.55.55,0,0,1-.48.22H298.9V401.3a.65.65,0,0,1-.17.43.6.6,0,0,1-.46.2h-4a.65.65,0,0,1-.43-.18.59.59,0,0,1-.2-.45V386.53h-4.63a.64.64,0,0,1-.46-.17.69.69,0,0,1-.18-.51ZM268,401.35a.64.64,0,0,0,.14.41.58.58,0,0,0,.45.17h3.83a.51.51,0,0,0,.62-.59V389.76c1.21,2,5.91,9.75,7.11,11.73a2.36,2.36,0,0,0,.28.32.45.45,0,0,0,.31.12H285a.69.69,0,0,0,.45-.13.5.5,0,0,0,.16-.4V382.5a.51.51,0,0,0-.19-.43.69.69,0,0,0-.47-.16h-3.84a.57.57,0,0,0-.38.14.66.66,0,0,0-.22.37v10.8l-6.81-10.89a.77.77,0,0,0-.35-.32.81.81,0,0,0-.39-.1h-4.41a.54.54,0,0,0-.44.18.59.59,0,0,0-.15.41Z" transform="translate(-231 -374.91)"/><path class="cls-1" d="M254.19,398c0-.24,0-1.2,1-1.2,0,0,2.83-.1,4.15-2.12a5.49,5.49,0,0,0-.35-6.09,4.54,4.54,0,0,0-3.55-1.67c-.15,0-1.26.05-1.26-1v-3.18a1,1,0,0,1,1.07-1.07,10.16,10.16,0,0,1,10.52,9.89,10.85,10.85,0,0,1-.71,4.16,10.58,10.58,0,0,1-2.7,3.88,10.3,10.3,0,0,1-7.17,2.57,1,1,0,0,1-1-1Z" transform="translate(-231 -374.91)"/><path class="cls-2" d="M247.62,397.82a1,1,0,0,0-1-1H242c-2,0-3.29-.1-4.61-2.12a5.53,5.53,0,0,1,.34-6.09,4.37,4.37,0,0,1,3.86-1.67h4.76c.61,0,1.23-.22,1.23-1v-3.18a1,1,0,0,0-1.07-1.07H241.3a10.15,10.15,0,0,0-10.3,9.89,11.09,11.09,0,0,0,.7,4.16,10.31,10.31,0,0,0,9.48,6.45h5.29c.44,0,1.15-.14,1.15-1Z" transform="translate(-231 -374.91)"/><path class="cls-3" d="M251.57,374.91h0v33.44h-1.26V374.91ZM369.9,414.16l3.16-5.74h-1.47l-2.41,4.19-2.46-4.19h-1.46l3.2,5.79V417h1.44Zm-9.38-4.43v-1.31h-6.89v1.31h2.72V417h1.45v-7.3Zm-12.74-1.31h-1.45V417h1.45Zm-13.49,4.71v-3.4h2c1.32,0,2.08.54,2.08,1.67s-.76,1.73-2.08,1.73Zm4,3.9h1.65L338,414.15a2.76,2.76,0,0,0,1.78-2.79c0-1.87-1.26-2.94-3.46-2.94h-3.5V417h1.46v-2.6h2.43Zm-12.14-8.61H324.7v5a2.12,2.12,0,0,1-2.27,2.32,2.15,2.15,0,0,1-2.32-2.32v-5h-1.45v5a3.75,3.75,0,0,0,7.49,0Zm-16.68,0a4.35,4.35,0,1,0-.05,8.7,4.88,4.88,0,0,0,3.33-1.42l-.86-.95a3.57,3.57,0,0,1-2.39,1,3,3,0,1,1,0-6.06,3.32,3.32,0,0,1,2.39,1.09l.85-1.06a4.76,4.76,0,0,0-3.27-1.32m-10.33,1.34v-1.31H293V417h6.29v-1.31h-4.84v-2.37h4.2v-1.3h-4.2v-2.32Zm-15.58-1.37c-1.86,0-3.13.92-3.13,2.4,0,3.06,4.65,2,4.65,3.91,0,.66-.61,1-1.61,1a4.55,4.55,0,0,1-2.92-1.25l-.62,1.25a5.28,5.28,0,0,0,3.51,1.37c1.89,0,3.25-.95,3.25-2.49,0-3.09-4.64-2.09-4.64-4,0-.57.56-.89,1.4-.89a5.17,5.17,0,0,1,2.52.79l.61-1.27a5.62,5.62,0,0,0-3-.89" transform="translate(-231 -374.91)"/><path class="cls-3" d="M381,415.07a2,2,0,0,1-2,2,2,2,0,1,1,0-3.9A1.94,1.94,0,0,1,381,415.07Zm-3.48,0a1.49,1.49,0,0,0,1.51,1.54,1.47,1.47,0,0,0,1.47-1.53,1.49,1.49,0,1,0-3,0Zm1.19,1h-.45v-1.93a3.6,3.6,0,0,1,.74-.06,1.25,1.25,0,0,1,.68.14.54.54,0,0,1,.19.42.49.49,0,0,1-.4.45v0a.58.58,0,0,1,.35.47,1.45,1.45,0,0,0,.14.48h-.48a1.63,1.63,0,0,1-.16-.47c0-.21-.15-.31-.4-.31h-.21Zm0-1.1h.21c.25,0,.45-.08.45-.28s-.13-.29-.41-.29l-.25,0Z" transform="translate(-231 -374.91)"/></svg>